{"title":"Project Almanac 2015 HDCAM FIRST ENG x264 Pimp4003","uid":11688459,"size":1060798614,"categoryP":"video","categoryS":"movies","magnet":"?xt=urn:btih:020b6e5f7e4b1a3202b4e054c7acc4132264b2c6&amp;dn=Project+Almanac+2015+HDCAM+FIRST+ENG+x264+Pimp4003&amp;tr=udp%3A%2F%2Ftracker.openbittorrent.com%3A80&amp;tr=udp%3A%2F%2Fopen.demonii.com%3A1337&amp;tr=udp%3A%2F%2Ftracker.coppersurfer.tk%3A6969&amp;tr=udp%3A%2F%2Fexodus.desync.com%3A6969","seeders":20,"leechers":0,"uploader":"shawnmurthy","files":1,"time":1423410781,"description":"SOURCE IS PIMP4003....THIS IS VERSION 1 I AM WORKING ON A VERSION 2 AND IT WILL BE 720P COMING UP SOON AND TS AS WELL...PIMP4003\n\nSCREENSHOTS GO HERE...pimp4003 dot net/torrents.php?id=020b6e5f7e4b1a3202b4e054c7acc4132264b2c6\n &lt;a href=&quot;\nhttp://i.imgur.com/J3ny9bJ.jpg&quot; rel=&quot;nofollow&quot; target=&quot;_NEW&quot;&gt;\nhttp://i.imgur.com/J3ny9bJ.jpg&lt;/a&gt;\n &lt;a href=&quot;\nhttp://i.imgur.com/SpsuXOR.png&quot; rel=&quot;nofollow&quot; target=&quot;_NEW&quot;&gt;\nhttp://i.imgur.com/SpsuXOR.png&lt;/a&gt;\n\nPIMP THE ONE AND ONLY PIMPSTER.....PRESENTS\n\nfacebook dot com/OfficialPimp4003\n &lt;a href=&quot;\nhttp://i.imgur.com/In45Pg3.jpg&quot; rel=&quot;nofollow&quot; target=&quot;_NEW&quot;&gt;\nhttp://i.imgur.com/In45Pg3.jpg&lt;/a&gt;\n\nProject Almanac 2015 HDCAM FIRST ENG x264 Pimp4003\n &lt;a href=&quot;\nhttp://www.imdb.com/title/tt2436386/&quot; rel=&quot;nofollow&quot; target=&quot;_NEW&quot;&gt;\nhttp://www.imdb.com/title/tt2436386/&lt;/a&gt;\n\nA group of teens discover secret plans of a time machine, and construct one. However, things start to get out of control.\n\nDirector: Dean Israelite\n\nWriters: Andrew Deutschman, Andrew Deutschman, 1 more credit Â»\n\nStars: Amy Landecker, Sofia Black-D'Elia, Virginia Gardner| See full cast and crew Â»\n\nVideo\n\nID : 0\n\nFormat : AVC\n\nFormat/Info : Advanced Video Codec\n\nFormat profile : &lt;a class=&quot;__cf_email__&quot; href=&quot;/cdn-cgi/l/email-protection&quot; data-cfemail=&quot;db96bab2b59b97eef5ea&quot;&gt;[email&amp;#160;protected]&lt;/a&gt;&lt;script cf-hash='f9e31' type=&quot;text/javascript&quot;&gt;\n/* &lt;![CDATA[ */!function(){try{var t=&quot;currentScript&quot;in document?document.currentScript:function(){for(var t=document.getElementsByTagName(&quot;script&quot;),e=t.length;e--;)if(t[e].getAttribute(&quot;cf-hash&quot;))return t[e]}();if(t&amp;&amp;t.previousSibling){var e,r,n,i,c=t.previousSibling,a=c.getAttribute(&quot;data-cfemail&quot;);if(a){for(e=&quot;&quot;,r=parseInt(a.substr(0,2),16),n=2;a.length-n;n+=2)i=parseInt(a.substr(n,2),16)^r,e+=String.fromCharCode(i);e=document.createTextNode(e),c.parentNode.replaceChild(e,c)}}}catch(u){}}();/* ]]&gt; */&lt;/script&gt;\n\nFormat settings, CABAC : Yes\n\nFormat settings, ReFrames : 1 frame\n\nCodec ID : H264\n\nDuration : 1h 41mn\n\nBit rate : 1 195 Kbps\n\nWidth : 640 pixels\n\nHeight : 480 pixels\n\nDisplay aspect ratio : 4:3\n\nFrame rate : 25.000 fps\n\nColor space : YUV\n\nChroma subsampling : 4:2:0\n\nBit depth : 8 bits\n\nScan type : Progressive\n\nBits/(Pixel*Frame) : 0.156\n\nStream size : 866 MiB (86%)\n\nAudio\n\nID : 1\n\nFormat : MPEG Audio\n\nFormat version : Version 1\n\nFormat profile : Layer 3\n\nCodec ID : 55\n\nCodec ID/Hint : MP3\n\nDuration : 1h 41mn\n\nBit rate mode : Constant\n\nBit rate : 192 Kbps\n\nChannel(s) : 2 channels\n\nSampling rate : 44.1 KHz\n\nCompression mode : Lossy\n\nStream size : 139 MiB (14%)\n\nAlignment : Split accross interleaves\n\nInterleave, duration : 40 ms (1.00 video frame)\n\nInterleave, preload duration : 372 ms\n\nWriting library : LAMELAME","torrent":{"xt":"urn:btih:020b6e5f7e4b1a3202b4e054c7acc4132264b2c6","amp;dn":"Project+Almanac+2015+HDCAM+FIRST+ENG+x264+Pimp4003","amp;tr":["udp%3A%2F%2Ftracker.openbittorrent.com%3A80","udp%3A%2F%2Fopen.demonii.com%3A1337","udp%3A%2F%2Ftracker.coppersurfer.tk%3A6969","udp%3A%2F%2Fexodus.desync.com%3A6969"],"infoHash":"020b6e5f7e4b1a3202b4e054c7acc4132264b2c6","infoHashBuffer":{"type":"Buffer","data":[2,11,110,95,126,75,26,50,2,180,224,84,199,172,196,19,34,100,178,198]},"announce":[],"urlList":[]}}